# xmcd CD database file
# Copyright (C) 1993-1998 Ti Kan
#
# Track frame offsets:
# 150
# 13870
# 27117
# 41132
# 55957
# 70982
# 85995
# 98510
# 109127
# 120872
# 132655
# 143412
# 154685
# 167550
# 179677
# 191580
# 203995
# 215400
# 227682
# 239435
# 251905
# 263887
# 276445
# 288550
#
# Disc length: 4012 seconds
# Revision: 0
# Processed by: cddbd v1.4b41PL1 Copyright (c) Steve Scherf et al.
# Submitted via: CDSpectrumPro v3.3.331
#
DISCID=660faa18
DTITLE=Bob Wills and His Texas Playboys - The Bob Wills Anthology
DYEAR=1900
DGENRE=
TTITLE0=Osage Stomp
TTITLE1=Spanish Two Step
TTITLE2=Maiden's Prayer
TTITLE3=Mexicali Rose
TTITLE4=Old Fashioned Love
TTITLE5=Sittin' On Top Of The World
TTITLE6=Steel Guitar Rag
TTITLE7=Blue Yodel #1
TTITLE8=Silver Bell
TTITLE9=That's What I Like 'Bout The South
TTITLE10=I'll See You In My Dreams
TTITLE11=The Waltz You Saved For Me
TTITLE12=Corrine Corrina
TTITLE13=Time Changes Everything
TTITLE14=Big Beaver
TTITLE15=Honey What You Gonna Do?
TTITLE16=I Found A Dream
TTITLE17=Take Me Back To Tulsa
TTITLE18=New San Antonio Rose
TTITLE19=I Knew The Moment I Lost You
TTITLE20=Twin Guitar Special
TTITLE21=Mississippi Delta Blues
TTITLE22=Roly Poly
TTITLE23=Brain Cloudy Blues
EXTD=1973
EXTT0=
EXTT1=
EXTT2=
EXTT3=
EXTT4=
EXTT5=
EXTT6=
EXTT7=
EXTT8=
EXTT9=
EXTT10=
EXTT11=
EXTT12=
EXTT13=
EXTT14=
EXTT15=
EXTT16=
EXTT17=
EXTT18=
EXTT19=
EXTT20=
EXTT21=
EXTT22=
EXTT23=
PLAYORDER=
